<svg xmlns="http://www.w3.org/2000/svg" version="1.1" xmlns:xlink="http://www.w3.org/1999/xlink" xmlns:svgjs="http://svgjs.dev/svgjs" viewBox="0 0 2400 800" opacity="1"><defs><linearGradient x1="50%" y1="0%" x2="50%" y2="100%" id="sssurf-grad"><stop stop-color="#F8EABB" stop-opacity="1" offset="0%"></stop><stop stop-color="#4C7264" stop-opacity="1" offset="100%"></stop></linearGradient></defs><g fill="url(#sssurf-grad)" transform="matrix(1,0,0,1,0,-39.271881103515625)"><path d="M 0 292.543765342713 Q 178.16718178427632 450 400 368.51386931282457 Q 581.1583194919261 450 800 302.92757324527304 Q 1039.8078943410587 450 1200 346.7752477679902 Q 1440.7953337784907 450 1600 301.38960336384497 Q 1792.6113282595268 450 2000 331.1953138260327 Q 2123.939507109764 450 2400 358.41332376602975 L 2400 800 L 0 800 L 0 316.0278738748373 Z" transform="matrix(1,0,0,1,0,31)" opacity="0.05"></path><path d="M 0 292.543765342713 Q 178.16718178427632 450 400 368.51386931282457 Q 581.1583194919261 450 800 302.92757324527304 Q 1039.8078943410587 450 1200 346.7752477679902 Q 1440.7953337784907 450 1600 301.38960336384497 Q 1792.6113282595268 450 2000 331.1953138260327 Q 2123.939507109764 450 2400 358.41332376602975 L 2400 800 L 0 800 L 0 316.0278738748373 Z" transform="matrix(1,0,0,1,0,62)" opacity="0.29"></path><path d="M 0 292.543765342713 Q 178.16718178427632 450 400 368.51386931282457 Q 581.1583194919261 450 800 302.92757324527304 Q 1039.8078943410587 450 1200 346.7752477679902 Q 1440.7953337784907 450 1600 301.38960336384497 Q 1792.6113282595268 450 2000 331.1953138260327 Q 2123.939507109764 450 2400 358.41332376602975 L 2400 800 L 0 800 L 0 316.0278738748373 Z" transform="matrix(1,0,0,1,0,93)" opacity="0.53"></path><path d="M 0 292.543765342713 Q 178.16718178427632 450 400 368.51386931282457 Q 581.1583194919261 450 800 302.92757324527304 Q 1039.8078943410587 450 1200 346.7752477679902 Q 1440.7953337784907 450 1600 301.38960336384497 Q 1792.6113282595268 450 2000 331.1953138260327 Q 2123.939507109764 450 2400 358.41332376602975 L 2400 800 L 0 800 L 0 316.0278738748373 Z" transform="matrix(1,0,0,1,0,124)" opacity="0.76"></path><path d="M 0 292.543765342713 Q 178.16718178427632 450 400 368.51386931282457 Q 581.1583194919261 450 800 302.92757324527304 Q 1039.8078943410587 450 1200 346.7752477679902 Q 1440.7953337784907 450 1600 301.38960336384497 Q 1792.6113282595268 450 2000 331.1953138260327 Q 2123.939507109764 450 2400 358.41332376602975 L 2400 800 L 0 800 L 0 316.0278738748373 Z" transform="matrix(1,0,0,1,0,155)" opacity="1.00"></path></g></svg>