<svg xmlns="http://www.w3.org/2000/svg" version="1.1" xmlns:xlink="http://www.w3.org/1999/xlink" xmlns:svgjs="http://svgjs.dev/svgjs" viewBox="0 0 1422 800" opacity="1"><defs><linearGradient x1="50%" y1="0%" x2="50%" y2="100%" id="oooscillate-grad"><stop stop-color="#4c7264" stop-opacity="1" offset="0%"></stop><stop stop-color="#f8eabb" stop-opacity="1" offset="100%"></stop></linearGradient></defs><g stroke-width="1.5" stroke="url(#oooscillate-grad)" fill="none" stroke-linecap="round"><path d="M 0 1332 Q 355.5 -80 711 400 Q 1066.5 880 1422 1332" opacity="0.50"></path><path d="M 0 1320 Q 355.5 -80 711 400 Q 1066.5 880 1422 1320" opacity="0.89"></path><path d="M 0 1308 Q 355.5 -80 711 400 Q 1066.5 880 1422 1308" opacity="0.89"></path><path d="M 0 1296 Q 355.5 -80 711 400 Q 1066.5 880 1422 1296" opacity="0.42"></path><path d="M 0 1284 Q 355.5 -80 711 400 Q 1066.5 880 1422 1284" opacity="0.82"></path><path d="M 0 1272 Q 355.5 -80 711 400 Q 1066.5 880 1422 1272" opacity="0.49"></path><path d="M 0 1260 Q 355.5 -80 711 400 Q 1066.5 880 1422 1260" opacity="0.56"></path><path d="M 0 1248 Q 355.5 -80 711 400 Q 1066.5 880 1422 1248" opacity="0.15"></path><path d="M 0 1236 Q 355.5 -80 711 400 Q 1066.5 880 1422 1236" opacity="0.23"></path><path d="M 0 1224 Q 355.5 -80 711 400 Q 1066.5 880 1422 1224" opacity="0.14"></path><path d="M 0 1212 Q 355.5 -80 711 400 Q 1066.5 880 1422 1212" opacity="0.71"></path><path d="M 0 1200 Q 355.5 -80 711 400 Q 1066.5 880 1422 1200" opacity="0.53"></path><path d="M 0 1188 Q 355.5 -80 711 400 Q 1066.5 880 1422 1188" opacity="0.79"></path><path d="M 0 1176 Q 355.5 -80 711 400 Q 1066.5 880 1422 1176" opacity="0.67"></path><path d="M 0 1164 Q 355.5 -80 711 400 Q 1066.5 880 1422 1164" opacity="0.31"></path><path d="M 0 1152 Q 355.5 -80 711 400 Q 1066.5 880 1422 1152" opacity="0.36"></path><path d="M 0 1140 Q 355.5 -80 711 400 Q 1066.5 880 1422 1140" opacity="0.19"></path><path d="M 0 1128 Q 355.5 -80 711 400 Q 1066.5 880 1422 1128" opacity="0.46"></path><path d="M 0 1116 Q 355.5 -80 711 400 Q 1066.5 880 1422 1116" opacity="0.72"></path><path d="M 0 1104 Q 355.5 -80 711 400 Q 1066.5 880 1422 1104" opacity="0.35"></path><path d="M 0 1092 Q 355.5 -80 711 400 Q 1066.5 880 1422 1092" opacity="0.41"></path><path d="M 0 1080 Q 355.5 -80 711 400 Q 1066.5 880 1422 1080" opacity="0.98"></path><path d="M 0 1068 Q 355.5 -80 711 400 Q 1066.5 880 1422 1068" opacity="0.43"></path><path d="M 0 1056 Q 355.5 -80 711 400 Q 1066.5 880 1422 1056" opacity="0.14"></path><path d="M 0 1044 Q 355.5 -80 711 400 Q 1066.5 880 1422 1044" opacity="0.14"></path><path d="M 0 1032 Q 355.5 -80 711 400 Q 1066.5 880 1422 1032" opacity="0.85"></path><path d="M 0 1020 Q 355.5 -80 711 400 Q 1066.5 880 1422 1020" opacity="0.19"></path><path d="M 0 1008 Q 355.5 -80 711 400 Q 1066.5 880 1422 1008" opacity="0.74"></path><path d="M 0 996 Q 355.5 -80 711 400 Q 1066.5 880 1422 996" opacity="0.22"></path><path d="M 0 984 Q 355.5 -80 711 400 Q 1066.5 880 1422 984" opacity="0.89"></path><path d="M 0 972 Q 355.5 -80 711 400 Q 1066.5 880 1422 972" opacity="0.49"></path><path d="M 0 960 Q 355.5 -80 711 400 Q 1066.5 880 1422 960" opacity="0.67"></path><path d="M 0 948 Q 355.5 -80 711 400 Q 1066.5 880 1422 948" opacity="0.57"></path><path d="M 0 936 Q 355.5 -80 711 400 Q 1066.5 880 1422 936" opacity="0.38"></path><path d="M 0 924 Q 355.5 -80 711 400 Q 1066.5 880 1422 924" opacity="0.79"></path><path d="M 0 912 Q 355.5 -80 711 400 Q 1066.5 880 1422 912" opacity="0.21"></path><path d="M 0 900 Q 355.5 -80 711 400 Q 1066.5 880 1422 900" opacity="0.81"></path><path d="M 0 888 Q 355.5 -80 711 400 Q 1066.5 880 1422 888" opacity="0.12"></path><path d="M 0 876 Q 355.5 -80 711 400 Q 1066.5 880 1422 876" opacity="0.67"></path><path d="M 0 864 Q 355.5 -80 711 400 Q 1066.5 880 1422 864" opacity="0.35"></path><path d="M 0 852 Q 355.5 -80 711 400 Q 1066.5 880 1422 852" opacity="0.67"></path><path d="M 0 840 Q 355.5 -80 711 400 Q 1066.5 880 1422 840" opacity="0.84"></path><path d="M 0 828 Q 355.5 -80 711 400 Q 1066.5 880 1422 828" opacity="0.83"></path><path d="M 0 816 Q 355.5 -80 711 400 Q 1066.5 880 1422 816" opacity="0.21"></path><path d="M 0 804 Q 355.5 -80 711 400 Q 1066.5 880 1422 804" opacity="0.38"></path><path d="M 0 792 Q 355.5 -80 711 400 Q 1066.5 880 1422 792" opacity="0.97"></path><path d="M 0 780 Q 355.5 -80 711 400 Q 1066.5 880 1422 780" opacity="0.85"></path><path d="M 0 768 Q 355.5 -80 711 400 Q 1066.5 880 1422 768" opacity="0.64"></path><path d="M 0 756 Q 355.5 -80 711 400 Q 1066.5 880 1422 756" opacity="0.40"></path><path d="M 0 744 Q 355.5 -80 711 400 Q 1066.5 880 1422 744" opacity="0.48"></path><path d="M 0 732 Q 355.5 -80 711 400 Q 1066.5 880 1422 732" opacity="0.12"></path><path d="M 0 720 Q 355.5 -80 711 400 Q 1066.5 880 1422 720" opacity="0.84"></path><path d="M 0 708 Q 355.5 -80 711 400 Q 1066.5 880 1422 708" opacity="0.74"></path><path d="M 0 696 Q 355.5 -80 711 400 Q 1066.5 880 1422 696" opacity="0.77"></path><path d="M 0 684 Q 355.5 -80 711 400 Q 1066.5 880 1422 684" opacity="0.36"></path><path d="M 0 672 Q 355.5 -80 711 400 Q 1066.5 880 1422 672" opacity="0.75"></path><path d="M 0 660 Q 355.5 -80 711 400 Q 1066.5 880 1422 660" opacity="0.59"></path><path d="M 0 648 Q 355.5 -80 711 400 Q 1066.5 880 1422 648" opacity="0.63"></path><path d="M 0 636 Q 355.5 -80 711 400 Q 1066.5 880 1422 636" opacity="0.70"></path><path d="M 0 624 Q 355.5 -80 711 400 Q 1066.5 880 1422 624" opacity="0.68"></path><path d="M 0 612 Q 355.5 -80 711 400 Q 1066.5 880 1422 612" opacity="0.83"></path><path d="M 0 600 Q 355.5 -80 711 400 Q 1066.5 880 1422 600" opacity="0.61"></path><path d="M 0 588 Q 355.5 -80 711 400 Q 1066.5 880 1422 588" opacity="0.88"></path><path d="M 0 576 Q 355.5 -80 711 400 Q 1066.5 880 1422 576" opacity="0.93"></path><path d="M 0 564 Q 355.5 -80 711 400 Q 1066.5 880 1422 564" opacity="0.91"></path><path d="M 0 552 Q 355.5 -80 711 400 Q 1066.5 880 1422 552" opacity="0.46"></path><path d="M 0 540 Q 355.5 -80 711 400 Q 1066.5 880 1422 540" opacity="0.13"></path><path d="M 0 528 Q 355.5 -80 711 400 Q 1066.5 880 1422 528" opacity="0.64"></path><path d="M 0 516 Q 355.5 -80 711 400 Q 1066.5 880 1422 516" opacity="0.42"></path><path d="M 0 504 Q 355.5 -80 711 400 Q 1066.5 880 1422 504" opacity="0.64"></path><path d="M 0 492 Q 355.5 -80 711 400 Q 1066.5 880 1422 492" opacity="0.19"></path><path d="M 0 480 Q 355.5 -80 711 400 Q 1066.5 880 1422 480" opacity="0.84"></path><path d="M 0 468 Q 355.5 -80 711 400 Q 1066.5 880 1422 468" opacity="0.26"></path><path d="M 0 456 Q 355.5 -80 711 400 Q 1066.5 880 1422 456" opacity="0.78"></path><path d="M 0 444 Q 355.5 -80 711 400 Q 1066.5 880 1422 444" opacity="0.40"></path><path d="M 0 432 Q 355.5 -80 711 400 Q 1066.5 880 1422 432" opacity="0.67"></path><path d="M 0 420 Q 355.5 -80 711 400 Q 1066.5 880 1422 420" opacity="0.20"></path><path d="M 0 408 Q 355.5 -80 711 400 Q 1066.5 880 1422 408" opacity="0.08"></path><path d="M 0 396 Q 355.5 -80 711 400 Q 1066.5 880 1422 396" opacity="0.49"></path><path d="M 0 384 Q 355.5 -80 711 400 Q 1066.5 880 1422 384" opacity="0.42"></path><path d="M 0 372 Q 355.5 -80 711 400 Q 1066.5 880 1422 372" opacity="0.42"></path><path d="M 0 360 Q 355.5 -80 711 400 Q 1066.5 880 1422 360" opacity="0.34"></path><path d="M 0 348 Q 355.5 -80 711 400 Q 1066.5 880 1422 348" opacity="0.53"></path><path d="M 0 336 Q 355.5 -80 711 400 Q 1066.5 880 1422 336" opacity="0.95"></path><path d="M 0 324 Q 355.5 -80 711 400 Q 1066.5 880 1422 324" opacity="0.51"></path><path d="M 0 312 Q 355.5 -80 711 400 Q 1066.5 880 1422 312" opacity="0.77"></path><path d="M 0 300 Q 355.5 -80 711 400 Q 1066.5 880 1422 300" opacity="0.90"></path><path d="M 0 288 Q 355.5 -80 711 400 Q 1066.5 880 1422 288" opacity="0.34"></path><path d="M 0 276 Q 355.5 -80 711 400 Q 1066.5 880 1422 276" opacity="0.52"></path><path d="M 0 264 Q 355.5 -80 711 400 Q 1066.5 880 1422 264" opacity="0.88"></path><path d="M 0 252 Q 355.5 -80 711 400 Q 1066.5 880 1422 252" opacity="0.67"></path><path d="M 0 240 Q 355.5 -80 711 400 Q 1066.5 880 1422 240" opacity="0.41"></path><path d="M 0 228 Q 355.5 -80 711 400 Q 1066.5 880 1422 228" opacity="0.51"></path><path d="M 0 216 Q 355.5 -80 711 400 Q 1066.5 880 1422 216" opacity="0.71"></path><path d="M 0 204 Q 355.5 -80 711 400 Q 1066.5 880 1422 204" opacity="0.39"></path><path d="M 0 192 Q 355.5 -80 711 400 Q 1066.5 880 1422 192" opacity="0.82"></path><path d="M 0 180 Q 355.5 -80 711 400 Q 1066.5 880 1422 180" opacity="0.63"></path><path d="M 0 168 Q 355.5 -80 711 400 Q 1066.5 880 1422 168" opacity="0.31"></path><path d="M 0 156 Q 355.5 -80 711 400 Q 1066.5 880 1422 156" opacity="0.79"></path><path d="M 0 144 Q 355.5 -80 711 400 Q 1066.5 880 1422 144" opacity="0.51"></path><path d="M 0 132 Q 355.5 -80 711 400 Q 1066.5 880 1422 132" opacity="0.24"></path><path d="M 0 120 Q 355.5 -80 711 400 Q 1066.5 880 1422 120" opacity="0.22"></path><path d="M 0 108 Q 355.5 -80 711 400 Q 1066.5 880 1422 108" opacity="0.18"></path><path d="M 0 96 Q 355.5 -80 711 400 Q 1066.5 880 1422 96" opacity="0.89"></path><path d="M 0 84 Q 355.5 -80 711 400 Q 1066.5 880 1422 84" opacity="0.52"></path><path d="M 0 72 Q 355.5 -80 711 400 Q 1066.5 880 1422 72" opacity="0.93"></path><path d="M 0 60 Q 355.5 -80 711 400 Q 1066.5 880 1422 60" opacity="0.12"></path><path d="M 0 48 Q 355.5 -80 711 400 Q 1066.5 880 1422 48" opacity="0.40"></path><path d="M 0 36 Q 355.5 -80 711 400 Q 1066.5 880 1422 36" opacity="0.20"></path><path d="M 0 24 Q 355.5 -80 711 400 Q 1066.5 880 1422 24" opacity="0.40"></path></g></svg>