<svg xmlns="http://www.w3.org/2000/svg" version="1.1" xmlns:xlink="http://www.w3.org/1999/xlink" xmlns:svgjs="http://svgjs.dev/svgjs" viewBox="0 0 1422 800" opacity="1"><defs><linearGradient x1="50%" y1="0%" x2="50%" y2="100%" id="oooscillate-grad"><stop stop-color="#4c7264" stop-opacity="1" offset="0%"></stop><stop stop-color="#f8eabb" stop-opacity="1" offset="100%"></stop></linearGradient></defs><g stroke-width="1.5" stroke="url(#oooscillate-grad)" fill="none" stroke-linecap="round"><path d="M 0 777 Q 355.5 -100 711 400 Q 1066.5 900 1422 777" stroke-dasharray="0 10" opacity="0.15"></path><path d="M 0 770 Q 355.5 -100 711 400 Q 1066.5 900 1422 770" stroke-dasharray="1 4" opacity="0.47"></path><path d="M 0 763 Q 355.5 -100 711 400 Q 1066.5 900 1422 763" stroke-dasharray="5 9" opacity="0.52"></path><path d="M 0 756 Q 355.5 -100 711 400 Q 1066.5 900 1422 756" stroke-dasharray="8 8" opacity="0.54"></path><path d="M 0 749 Q 355.5 -100 711 400 Q 1066.5 900 1422 749" stroke-dasharray="3 12" opacity="0.85"></path><path d="M 0 742 Q 355.5 -100 711 400 Q 1066.5 900 1422 742" stroke-dasharray="12 2" opacity="0.49"></path><path d="M 0 735 Q 355.5 -100 711 400 Q 1066.5 900 1422 735" stroke-dasharray="12 14" opacity="0.37"></path><path d="M 0 728 Q 355.5 -100 711 400 Q 1066.5 900 1422 728" stroke-dasharray="1 2" opacity="0.37"></path><path d="M 0 721 Q 355.5 -100 711 400 Q 1066.5 900 1422 721" stroke-dasharray="13 13" opacity="0.69"></path><path d="M 0 714 Q 355.5 -100 711 400 Q 1066.5 900 1422 714" stroke-dasharray="5 0" opacity="0.13"></path><path d="M 0 707 Q 355.5 -100 711 400 Q 1066.5 900 1422 707" stroke-dasharray="4 0" opacity="0.24"></path><path d="M 0 700 Q 355.5 -100 711 400 Q 1066.5 900 1422 700" stroke-dasharray="2 1" opacity="0.47"></path><path d="M 0 693 Q 355.5 -100 711 400 Q 1066.5 900 1422 693" stroke-dasharray="13 11" opacity="0.93"></path><path d="M 0 686 Q 355.5 -100 711 400 Q 1066.5 900 1422 686" stroke-dasharray="10 2" opacity="0.47"></path><path d="M 0 679 Q 355.5 -100 711 400 Q 1066.5 900 1422 679" stroke-dasharray="7 5" opacity="0.63"></path><path d="M 0 672 Q 355.5 -100 711 400 Q 1066.5 900 1422 672" stroke-dasharray="8 9" opacity="0.56"></path><path d="M 0 665 Q 355.5 -100 711 400 Q 1066.5 900 1422 665" stroke-dasharray="3 14" opacity="0.81"></path><path d="M 0 658 Q 355.5 -100 711 400 Q 1066.5 900 1422 658" stroke-dasharray="6 1" opacity="0.95"></path><path d="M 0 651 Q 355.5 -100 711 400 Q 1066.5 900 1422 651" stroke-dasharray="1 3" opacity="0.51"></path><path d="M 0 644 Q 355.5 -100 711 400 Q 1066.5 900 1422 644" stroke-dasharray="15 5" opacity="0.30"></path><path d="M 0 637 Q 355.5 -100 711 400 Q 1066.5 900 1422 637" stroke-dasharray="3 11" opacity="0.39"></path><path d="M 0 630 Q 355.5 -100 711 400 Q 1066.5 900 1422 630" stroke-dasharray="6 12" opacity="0.56"></path><path d="M 0 623 Q 355.5 -100 711 400 Q 1066.5 900 1422 623" stroke-dasharray="12 5" opacity="0.15"></path><path d="M 0 616 Q 355.5 -100 711 400 Q 1066.5 900 1422 616" stroke-dasharray="15 11" opacity="0.35"></path><path d="M 0 609 Q 355.5 -100 711 400 Q 1066.5 900 1422 609" stroke-dasharray="9 2" opacity="0.26"></path><path d="M 0 602 Q 355.5 -100 711 400 Q 1066.5 900 1422 602" stroke-dasharray="11 0" opacity="0.51"></path><path d="M 0 595 Q 355.5 -100 711 400 Q 1066.5 900 1422 595" stroke-dasharray="3 0" opacity="0.68"></path><path d="M 0 588 Q 355.5 -100 711 400 Q 1066.5 900 1422 588" stroke-dasharray="11 11" opacity="0.77"></path><path d="M 0 581 Q 355.5 -100 711 400 Q 1066.5 900 1422 581" stroke-dasharray="1 15" opacity="0.59"></path><path d="M 0 574 Q 355.5 -100 711 400 Q 1066.5 900 1422 574" stroke-dasharray="13 15" opacity="0.46"></path><path d="M 0 567 Q 355.5 -100 711 400 Q 1066.5 900 1422 567" stroke-dasharray="6 14" opacity="0.65"></path><path d="M 0 560 Q 355.5 -100 711 400 Q 1066.5 900 1422 560" stroke-dasharray="13 13" opacity="0.93"></path><path d="M 0 553 Q 355.5 -100 711 400 Q 1066.5 900 1422 553" stroke-dasharray="7 13" opacity="0.43"></path><path d="M 0 546 Q 355.5 -100 711 400 Q 1066.5 900 1422 546" stroke-dasharray="6 7" opacity="0.95"></path><path d="M 0 539 Q 355.5 -100 711 400 Q 1066.5 900 1422 539" stroke-dasharray="9 2" opacity="0.81"></path><path d="M 0 532 Q 355.5 -100 711 400 Q 1066.5 900 1422 532" stroke-dasharray="6 8" opacity="0.45"></path><path d="M 0 525 Q 355.5 -100 711 400 Q 1066.5 900 1422 525" stroke-dasharray="1 11" opacity="0.19"></path><path d="M 0 518 Q 355.5 -100 711 400 Q 1066.5 900 1422 518" stroke-dasharray="2 1" opacity="0.54"></path><path d="M 0 511 Q 355.5 -100 711 400 Q 1066.5 900 1422 511" stroke-dasharray="1 5" opacity="0.87"></path><path d="M 0 504 Q 355.5 -100 711 400 Q 1066.5 900 1422 504" stroke-dasharray="3 12" opacity="0.76"></path><path d="M 0 497 Q 355.5 -100 711 400 Q 1066.5 900 1422 497" stroke-dasharray="15 5" opacity="0.52"></path><path d="M 0 490 Q 355.5 -100 711 400 Q 1066.5 900 1422 490" stroke-dasharray="4 6" opacity="0.58"></path><path d="M 0 483 Q 355.5 -100 711 400 Q 1066.5 900 1422 483" stroke-dasharray="13 0" opacity="0.63"></path><path d="M 0 476 Q 355.5 -100 711 400 Q 1066.5 900 1422 476" stroke-dasharray="3 2" opacity="0.77"></path><path d="M 0 469 Q 355.5 -100 711 400 Q 1066.5 900 1422 469" stroke-dasharray="8 14" opacity="0.35"></path><path d="M 0 462 Q 355.5 -100 711 400 Q 1066.5 900 1422 462" stroke-dasharray="9 12" opacity="0.78"></path><path d="M 0 455 Q 355.5 -100 711 400 Q 1066.5 900 1422 455" stroke-dasharray="12 4" opacity="0.38"></path><path d="M 0 448 Q 355.5 -100 711 400 Q 1066.5 900 1422 448" stroke-dasharray="10 9" opacity="0.44"></path><path d="M 0 441 Q 355.5 -100 711 400 Q 1066.5 900 1422 441" stroke-dasharray="10 1" opacity="0.76"></path><path d="M 0 434 Q 355.5 -100 711 400 Q 1066.5 900 1422 434" stroke-dasharray="11 4" opacity="0.21"></path><path d="M 0 427 Q 355.5 -100 711 400 Q 1066.5 900 1422 427" stroke-dasharray="13 12" opacity="0.23"></path><path d="M 0 420 Q 355.5 -100 711 400 Q 1066.5 900 1422 420" stroke-dasharray="10 12" opacity="0.39"></path><path d="M 0 413 Q 355.5 -100 711 400 Q 1066.5 900 1422 413" stroke-dasharray="7 7" opacity="0.90"></path><path d="M 0 406 Q 355.5 -100 711 400 Q 1066.5 900 1422 406" stroke-dasharray="7 9" opacity="0.59"></path><path d="M 0 399 Q 355.5 -100 711 400 Q 1066.5 900 1422 399" stroke-dasharray="3 4" opacity="0.73"></path><path d="M 0 392 Q 355.5 -100 711 400 Q 1066.5 900 1422 392" stroke-dasharray="8 13" opacity="0.51"></path><path d="M 0 385 Q 355.5 -100 711 400 Q 1066.5 900 1422 385" stroke-dasharray="12 1" opacity="0.68"></path><path d="M 0 378 Q 355.5 -100 711 400 Q 1066.5 900 1422 378" stroke-dasharray="10 4" opacity="0.69"></path><path d="M 0 371 Q 355.5 -100 711 400 Q 1066.5 900 1422 371" stroke-dasharray="13 8" opacity="0.89"></path><path d="M 0 364 Q 355.5 -100 711 400 Q 1066.5 900 1422 364" stroke-dasharray="6 7" opacity="0.13"></path><path d="M 0 357 Q 355.5 -100 711 400 Q 1066.5 900 1422 357" stroke-dasharray="1 5" opacity="0.33"></path><path d="M 0 350 Q 355.5 -100 711 400 Q 1066.5 900 1422 350" stroke-dasharray="12 7" opacity="0.61"></path><path d="M 0 343 Q 355.5 -100 711 400 Q 1066.5 900 1422 343" stroke-dasharray="4 8" opacity="0.93"></path><path d="M 0 336 Q 355.5 -100 711 400 Q 1066.5 900 1422 336" stroke-dasharray="5 2" opacity="0.47"></path><path d="M 0 329 Q 355.5 -100 711 400 Q 1066.5 900 1422 329" stroke-dasharray="8 10" opacity="0.71"></path><path d="M 0 322 Q 355.5 -100 711 400 Q 1066.5 900 1422 322" stroke-dasharray="10 6" opacity="0.45"></path><path d="M 0 315 Q 355.5 -100 711 400 Q 1066.5 900 1422 315" stroke-dasharray="15 9" opacity="0.77"></path><path d="M 0 308 Q 355.5 -100 711 400 Q 1066.5 900 1422 308" stroke-dasharray="12 0" opacity="0.85"></path><path d="M 0 301 Q 355.5 -100 711 400 Q 1066.5 900 1422 301" stroke-dasharray="4 11" opacity="0.76"></path><path d="M 0 294 Q 355.5 -100 711 400 Q 1066.5 900 1422 294" stroke-dasharray="2 14" opacity="0.42"></path><path d="M 0 287 Q 355.5 -100 711 400 Q 1066.5 900 1422 287" stroke-dasharray="12 1" opacity="0.71"></path><path d="M 0 280 Q 355.5 -100 711 400 Q 1066.5 900 1422 280" stroke-dasharray="12 1" opacity="0.26"></path><path d="M 0 273 Q 355.5 -100 711 400 Q 1066.5 900 1422 273" stroke-dasharray="12 13" opacity="0.43"></path><path d="M 0 266 Q 355.5 -100 711 400 Q 1066.5 900 1422 266" stroke-dasharray="7 0" opacity="0.28"></path><path d="M 0 259 Q 355.5 -100 711 400 Q 1066.5 900 1422 259" stroke-dasharray="12 13" opacity="0.51"></path><path d="M 0 252 Q 355.5 -100 711 400 Q 1066.5 900 1422 252" stroke-dasharray="0 9" opacity="0.47"></path><path d="M 0 245 Q 355.5 -100 711 400 Q 1066.5 900 1422 245" stroke-dasharray="7 6" opacity="0.48"></path><path d="M 0 238 Q 355.5 -100 711 400 Q 1066.5 900 1422 238" stroke-dasharray="8 12" opacity="0.50"></path><path d="M 0 231 Q 355.5 -100 711 400 Q 1066.5 900 1422 231" stroke-dasharray="1 15" opacity="0.76"></path><path d="M 0 224 Q 355.5 -100 711 400 Q 1066.5 900 1422 224" stroke-dasharray="8 7" opacity="0.49"></path><path d="M 0 217 Q 355.5 -100 711 400 Q 1066.5 900 1422 217" stroke-dasharray="9 1" opacity="0.10"></path><path d="M 0 210 Q 355.5 -100 711 400 Q 1066.5 900 1422 210" stroke-dasharray="12 2" opacity="0.54"></path><path d="M 0 203 Q 355.5 -100 711 400 Q 1066.5 900 1422 203" stroke-dasharray="9 10" opacity="0.67"></path><path d="M 0 196 Q 355.5 -100 711 400 Q 1066.5 900 1422 196" stroke-dasharray="8 4" opacity="0.38"></path><path d="M 0 189 Q 355.5 -100 711 400 Q 1066.5 900 1422 189" stroke-dasharray="3 8" opacity="0.86"></path><path d="M 0 182 Q 355.5 -100 711 400 Q 1066.5 900 1422 182" stroke-dasharray="1 4" opacity="0.60"></path><path d="M 0 175 Q 355.5 -100 711 400 Q 1066.5 900 1422 175" stroke-dasharray="2 1" opacity="0.40"></path><path d="M 0 168 Q 355.5 -100 711 400 Q 1066.5 900 1422 168" stroke-dasharray="1 1" opacity="0.45"></path><path d="M 0 161 Q 355.5 -100 711 400 Q 1066.5 900 1422 161" stroke-dasharray="6 11" opacity="0.87"></path><path d="M 0 154 Q 355.5 -100 711 400 Q 1066.5 900 1422 154" stroke-dasharray="14 5" opacity="0.83"></path><path d="M 0 147 Q 355.5 -100 711 400 Q 1066.5 900 1422 147" stroke-dasharray="10 12" opacity="0.08"></path><path d="M 0 140 Q 355.5 -100 711 400 Q 1066.5 900 1422 140" stroke-dasharray="5 2" opacity="0.38"></path><path d="M 0 133 Q 355.5 -100 711 400 Q 1066.5 900 1422 133" stroke-dasharray="8 14" opacity="0.16"></path><path d="M 0 126 Q 355.5 -100 711 400 Q 1066.5 900 1422 126" stroke-dasharray="12 7" opacity="0.86"></path><path d="M 0 119 Q 355.5 -100 711 400 Q 1066.5 900 1422 119" stroke-dasharray="0 3" opacity="0.36"></path><path d="M 0 112 Q 355.5 -100 711 400 Q 1066.5 900 1422 112" stroke-dasharray="9 3" opacity="0.25"></path><path d="M 0 105 Q 355.5 -100 711 400 Q 1066.5 900 1422 105" stroke-dasharray="6 7" opacity="0.28"></path><path d="M 0 98 Q 355.5 -100 711 400 Q 1066.5 900 1422 98" stroke-dasharray="3 2" opacity="0.46"></path><path d="M 0 91 Q 355.5 -100 711 400 Q 1066.5 900 1422 91" stroke-dasharray="9 11" opacity="0.99"></path><path d="M 0 84 Q 355.5 -100 711 400 Q 1066.5 900 1422 84" stroke-dasharray="10 10" opacity="0.31"></path><path d="M 0 77 Q 355.5 -100 711 400 Q 1066.5 900 1422 77" stroke-dasharray="3 2" opacity="0.35"></path><path d="M 0 70 Q 355.5 -100 711 400 Q 1066.5 900 1422 70" stroke-dasharray="3 0" opacity="0.94"></path><path d="M 0 63 Q 355.5 -100 711 400 Q 1066.5 900 1422 63" stroke-dasharray="9 6" opacity="0.36"></path><path d="M 0 56 Q 355.5 -100 711 400 Q 1066.5 900 1422 56" stroke-dasharray="6 6" opacity="0.63"></path><path d="M 0 49 Q 355.5 -100 711 400 Q 1066.5 900 1422 49" stroke-dasharray="2 1" opacity="0.87"></path><path d="M 0 42 Q 355.5 -100 711 400 Q 1066.5 900 1422 42" stroke-dasharray="13 8" opacity="0.94"></path><path d="M 0 35 Q 355.5 -100 711 400 Q 1066.5 900 1422 35" stroke-dasharray="13 1" opacity="0.57"></path><path d="M 0 28 Q 355.5 -100 711 400 Q 1066.5 900 1422 28" stroke-dasharray="3 11" opacity="0.86"></path><path d="M 0 21 Q 355.5 -100 711 400 Q 1066.5 900 1422 21" stroke-dasharray="0 13" opacity="0.79"></path><path d="M 0 14 Q 355.5 -100 711 400 Q 1066.5 900 1422 14" stroke-dasharray="0 2" opacity="0.16"></path></g></svg>